<svg id="svg" version="1.1" xmlns="http://www.w3.org/2000/svg" xmlns:xlink="http://www.w3.org/1999/xlink" width="400" height="729.4117647058824" viewBox="0, 0, 400,729.4117647058824"><g id="svgg"><path id="path0" d="M82.800 6.769 C 82.800 13.468,82.789 13.551,81.764 14.769 L 80.729 16.000 66.626 16.000 C 53.472 16.000,52.479 16.049,51.862 16.731 C 51.283 17.371,51.200 18.719,51.200 27.456 C 51.200 40.623,52.843 39.200,37.638 39.200 C 26.360 39.200,25.653 39.243,24.703 39.991 L 23.697 40.781 23.750 56.814 L 23.802 72.847 22.875 73.717 C 21.997 74.542,21.517 74.595,13.674 74.733 C 2.871 74.923,4.031 73.315,4.049 88.078 C 4.068 102.980,3.275 101.600,11.818 101.600 C 17.977 101.600,18.046 101.610,19.073 102.637 L 20.110 103.674 19.882 147.799 C 19.665 189.599,19.690 191.958,20.358 192.562 C 20.940 193.089,22.156 193.200,27.344 193.200 C 34.886 193.200,34.101 192.110,34.157 202.671 L 34.200 210.869 35.368 211.873 C 37.572 213.770,50.868 212.994,51.837 210.911 C 52.019 210.520,52.231 196.880,52.307 180.600 C 52.384 164.320,52.574 150.872,52.729 150.715 C 52.884 150.558,55.117 150.378,57.692 150.315 C 64.277 150.153,63.756 151.181,64.000 137.886 L 64.200 127.000 96.400 126.800 C 114.110 126.690,128.929 126.440,129.331 126.245 C 130.646 125.607,130.800 124.094,130.800 111.817 L 130.800 99.687 131.700 99.478 C 133.166 99.138,250.472 99.181,252.000 99.522 L 253.400 99.834 253.543 104.217 C 253.621 106.628,253.725 112.920,253.773 118.200 C 253.906 132.920,253.857 132.293,254.982 133.418 C 255.910 134.346,256.215 134.400,260.539 134.400 C 264.394 134.400,265.154 134.502,265.364 135.050 C 265.501 135.408,265.604 152.456,265.592 172.935 C 265.565 217.868,264.352 212.689,274.920 212.760 C 284.052 212.822,283.573 213.430,283.707 201.600 L 283.800 193.400 291.912 193.506 L 300.025 193.612 301.012 192.624 L 302.000 191.636 302.000 121.802 C 302.000 52.624,301.992 51.953,301.195 50.391 L 300.391 48.814 290.295 48.707 L 280.200 48.600 279.300 46.815 C 278.484 45.197,278.400 44.461,278.400 38.915 C 278.400 30.435,279.739 31.200,264.889 31.200 C 250.110 31.200,251.312 31.733,251.133 25.100 C 251.016 20.798,250.886 20.017,250.067 18.700 L 249.135 17.200 237.184 17.200 L 225.234 17.200 224.217 15.465 C 223.235 13.789,223.200 13.496,223.200 6.865 C 223.200 0.181,223.178 0.000,222.369 0.000 C 221.025 0.000,221.343 14.130,222.747 16.800 C 224.551 20.232,223.442 19.983,236.924 19.981 C 244.953 19.980,249.082 20.122,249.370 20.409 C 249.607 20.646,249.889 23.093,250.000 25.878 C 250.280 32.931,249.115 32.396,264.272 32.426 C 273.076 32.444,276.450 32.579,276.734 32.925 C 276.948 33.186,277.190 36.640,277.271 40.600 C 277.502 51.823,276.912 51.329,290.001 51.267 C 299.439 51.223,300.005 51.263,300.392 51.984 C 300.835 52.813,300.998 189.418,300.557 190.567 C 300.347 191.116,299.229 191.200,292.188 191.200 L 284.061 191.200 282.831 192.236 L 281.600 193.271 281.600 201.556 C 281.600 207.466,281.462 209.978,281.120 210.320 C 280.403 211.037,268.654 210.988,268.055 210.266 C 267.740 209.886,267.582 198.870,267.506 172.032 L 267.400 134.331 266.278 133.365 C 265.240 132.472,264.828 132.400,260.792 132.400 C 255.183 132.400,255.553 133.192,255.601 121.291 C 255.622 116.071,255.631 109.041,255.620 105.669 L 255.600 99.538 254.431 98.369 L 253.262 97.200 192.411 97.200 C 127.400 97.200,129.773 97.131,129.036 99.049 C 128.893 99.423,128.781 105.040,128.787 111.533 C 128.797 121.962,128.722 123.424,128.137 124.069 C 127.507 124.765,125.965 124.800,95.720 124.800 L 63.964 124.800 62.982 125.782 L 62.000 126.764 62.000 137.158 C 62.000 149.259,62.519 148.177,56.709 148.190 C 52.651 148.199,52.363 148.255,51.400 149.219 L 50.381 150.237 50.349 180.127 C 50.318 208.666,50.284 210.034,49.585 210.408 C 48.460 211.010,36.993 210.915,36.484 210.300 C 36.233 209.997,36.053 206.694,36.028 201.903 C 35.968 190.863,36.482 191.500,27.400 191.207 L 21.000 191.000 21.146 178.200 C 21.544 143.373,21.399 101.239,20.880 100.720 C 20.530 100.370,18.802 100.154,15.580 100.058 C 12.053 99.953,10.800 99.782,10.800 99.407 C 10.800 98.444,9.728 97.901,9.383 98.690 C 9.213 99.080,9.102 99.535,9.136 99.700 C 9.171 99.865,8.417 100.000,7.459 100.000 L 5.718 100.000 5.711 88.011 L 5.704 76.021 14.804 76.016 C 24.712 76.011,25.020 75.970,25.355 74.637 C 25.513 74.007,26.074 73.585,27.203 73.246 C 29.064 72.689,29.007 72.203,27.038 71.833 C 25.199 71.489,25.199 71.481,25.308 54.700 L 25.399 40.800 38.199 40.806 C 51.180 40.812,51.658 40.857,52.117 42.100 C 52.842 44.066,52.988 41.729,52.862 30.200 L 52.724 17.600 54.218 17.600 C 55.175 17.600,55.894 17.850,56.220 18.295 C 56.702 18.954,56.767 18.954,57.495 18.295 C 58.817 17.098,67.814 17.272,68.160 18.500 L 68.414 19.400 69.171 18.500 C 69.888 17.648,70.217 17.600,75.384 17.600 C 84.059 17.600,84.299 17.314,84.366 6.900 C 84.409 0.237,84.383 0.000,83.605 0.000 C 82.830 0.000,82.800 0.252,82.800 6.769 M71.394 24.806 C 70.687 25.588,70.688 25.631,71.432 26.194 C 72.795 27.225,74.002 26.298,73.214 24.826 C 72.661 23.793,72.315 23.789,71.394 24.806 M56.179 35.776 C 55.354 37.035,55.710 37.602,57.324 37.594 C 59.232 37.585,59.641 37.191,58.980 35.997 C 58.677 35.449,58.422 35.141,58.414 35.314 C 58.406 35.487,58.046 35.439,57.614 35.207 C 56.965 34.860,56.714 34.960,56.179 35.776 M64.400 36.400 C 64.400 36.844,64.667 37.200,65.000 37.200 C 65.673 37.200,65.700 37.127,65.357 36.233 C 65.014 35.339,64.400 35.446,64.400 36.400 M32.892 48.303 C 32.194 48.535,32.282 49.469,33.028 49.755 C 33.373 49.888,34.094 49.767,34.629 49.486 L 35.603 48.976 34.493 48.558 C 33.883 48.327,33.162 48.213,32.892 48.303 M29.070 52.561 C 28.799 53.269,29.120 53.606,29.814 53.339 C 30.108 53.226,30.252 52.879,30.132 52.567 C 29.854 51.843,29.347 51.840,29.070 52.561 M44.655 56.600 C 44.782 56.930,44.686 57.200,44.443 57.200 C 44.199 57.200,44.000 57.623,44.000 58.140 C 44.000 59.580,44.835 61.655,45.345 61.483 C 46.154 61.210,45.640 56.000,44.805 56.000 C 44.596 56.000,44.529 56.270,44.655 56.600 M35.401 61.707 C 35.428 66.641,35.612 67.179,37.286 67.194 C 38.340 67.203,38.930 65.660,38.805 63.216 C 38.743 61.997,38.668 60.100,38.639 59.000 L 38.585 57.000 36.980 56.984 L 35.375 56.968 35.401 61.707 M47.398 71.557 L 45.800 72.266 47.352 72.561 C 49.071 72.887,49.885 72.438,49.339 71.463 C 49.033 70.916,48.820 70.926,47.398 71.557 M24.344 79.995 L 23.400 80.789 24.400 81.588 L 25.400 82.387 26.100 81.549 C 26.969 80.509,26.993 79.760,26.167 79.443 C 25.325 79.120,25.417 79.092,24.344 79.995 M13.017 87.738 C 12.395 88.193,12.402 88.278,13.109 88.917 C 13.830 89.570,13.904 89.569,14.519 88.889 C 15.403 87.912,14.122 86.930,13.017 87.738 M13.200 94.933 C 13.200 95.263,12.975 95.625,12.700 95.736 C 12.097 95.981,13.150 96.866,13.800 96.660 C 14.376 96.478,14.294 94.698,13.700 94.500 C 13.425 94.408,13.200 94.603,13.200 94.933 M25.200 111.787 C 25.200 112.144,25.435 112.285,25.798 112.146 C 26.126 112.019,26.296 111.755,26.174 111.558 C 25.825 110.993,25.200 111.140,25.200 111.787 M106.600 164.062 C 104.780 165.057,104.800 164.839,104.800 183.617 C 104.800 207.003,103.619 204.800,116.149 204.800 L 124.661 204.800 125.621 203.778 L 126.581 202.756 126.590 184.144 L 126.600 165.532 125.478 164.566 C 124.216 163.480,108.434 163.059,106.600 164.062 M192.254 164.429 L 191.200 165.258 191.200 184.047 L 191.200 202.836 192.182 203.818 C 193.305 204.942,193.194 204.932,203.178 204.808 C 210.545 204.716,211.693 204.521,212.376 203.245 C 212.835 202.386,213.002 166.591,212.552 165.418 C 211.765 163.368,194.662 162.535,192.254 164.429 M124.240 166.033 C 125.238 166.861,125.053 201.647,124.046 202.558 C 123.362 203.178,122.538 203.211,115.146 202.920 L 107.000 202.600 106.800 189.400 C 106.690 182.140,106.690 173.860,106.800 171.000 L 107.000 165.800 108.600 165.590 C 111.583 165.199,123.647 165.541,124.240 166.033 M210.564 166.026 C 211.123 166.551,210.921 201.972,210.356 202.653 C 209.616 203.544,194.297 203.440,193.549 202.539 C 192.658 201.465,192.475 167.023,193.355 166.050 C 194.043 165.289,209.756 165.268,210.564 166.026 M142.034 234.541 C 141.503 234.848,140.782 235.707,140.432 236.449 L 139.795 237.800 135.170 238.032 C 129.937 238.294,129.927 238.297,128.579 240.434 L 127.590 242.000 123.249 242.000 C 117.159 242.000,115.836 243.242,116.587 248.253 C 117.107 251.723,117.737 252.001,125.082 251.996 C 129.521 251.993,131.984 251.814,133.364 251.396 C 134.878 250.936,137.624 250.800,145.364 250.799 C 154.663 250.797,155.495 250.739,156.700 250.004 L 158.000 249.212 158.000 242.980 C 158.000 236.613,157.790 235.544,156.395 234.797 C 155.072 234.089,143.182 233.877,142.034 234.541 M169.112 234.371 C 163.661 234.692,163.831 234.436,163.673 242.603 L 163.546 249.179 164.873 249.988 C 166.126 250.752,166.862 250.797,178.142 250.799 C 187.689 250.800,190.570 250.926,192.505 251.427 C 194.328 251.900,196.449 252.023,201.099 251.927 C 208.653 251.772,208.800 251.677,208.800 247.000 C 208.800 242.258,208.747 242.227,200.431 242.074 L 193.589 241.947 193.056 240.674 C 192.137 238.474,191.505 238.218,186.441 238.000 L 181.803 237.800 181.108 236.321 C 180.022 234.008,178.762 233.804,169.112 234.371 M155.500 236.506 C 156.543 237.324,156.175 249.149,155.100 249.368 C 154.605 249.469,146.354 249.660,136.764 249.794 C 116.992 250.070,118.094 250.243,118.547 246.935 C 118.934 244.111,119.133 244.000,123.795 244.000 C 127.936 244.000,130.000 243.302,130.000 241.902 C 130.000 240.424,131.265 240.000,135.676 240.000 C 139.689 240.000,140.090 239.930,140.817 239.100 C 141.251 238.605,142.049 237.702,142.591 237.094 L 143.576 235.987 149.288 236.050 C 152.430 236.085,155.225 236.290,155.500 236.506 M178.804 236.402 C 179.242 236.636,179.600 237.068,179.600 237.360 C 179.600 239.382,181.063 240.000,185.848 240.000 L 190.437 240.000 191.119 241.263 C 192.603 244.013,192.563 244.000,199.551 244.000 C 206.687 244.000,206.552 243.946,206.945 246.959 C 207.373 250.241,208.751 250.047,186.844 249.783 C 176.150 249.655,166.995 249.467,166.500 249.367 C 165.398 249.144,165.067 237.787,166.132 236.729 C 166.816 236.048,177.621 235.769,178.804 236.402 M15.410 238.464 C 14.208 239.409,14.192 240.040,15.104 250.336 C 15.475 254.514,16.109 255.200,19.600 255.200 C 23.094 255.200,23.727 254.514,24.089 250.336 C 25.104 238.625,25.105 238.633,22.897 238.020 C 20.220 237.277,16.650 237.488,15.410 238.464 M22.366 239.861 L 23.310 240.522 23.025 246.757 C 22.695 253.958,22.675 254.000,19.600 254.000 C 16.532 254.000,16.520 253.973,16.186 246.758 L 15.898 240.517 16.838 239.858 C 18.063 239.000,21.139 239.002,22.366 239.861 M43.829 246.629 C 43.041 247.416,43.078 246.709,43.187 258.800 C 43.302 271.556,42.524 270.391,50.962 270.429 C 63.491 270.486,62.800 269.892,62.800 280.614 C 62.800 290.780,62.173 290.000,70.350 290.000 C 78.875 290.000,78.400 289.402,78.400 300.153 L 78.400 308.342 79.500 309.221 L 80.600 310.101 94.244 309.828 L 107.887 309.554 109.581 311.577 L 111.274 313.600 119.153 313.600 C 125.035 313.600,127.636 313.759,129.416 314.228 C 132.856 315.135,193.159 315.095,196.185 314.185 C 197.613 313.755,200.277 313.600,206.245 313.600 L 214.363 313.600 215.081 312.581 C 217.246 309.513,215.425 309.825,231.419 309.777 L 245.724 309.734 246.462 308.823 C 247.125 308.004,247.200 307.089,247.200 299.825 L 247.200 291.739 248.191 290.809 C 249.133 289.924,249.373 289.891,253.071 290.134 C 258.958 290.520,258.800 290.783,258.800 280.607 C 258.800 269.893,258.331 270.317,269.814 270.659 C 275.911 270.841,276.281 270.809,277.314 269.996 L 278.400 269.142 278.400 258.460 C 278.400 245.075,278.830 246.000,272.610 246.000 C 266.318 246.000,265.600 246.511,265.600 250.990 C 265.600 254.005,265.551 254.017,254.460 253.841 C 241.570 253.635,242.000 253.327,242.000 262.746 C 242.000 269.973,242.296 269.600,236.549 269.600 C 230.598 269.600,230.400 269.806,230.400 275.974 C 230.400 281.672,231.556 281.200,217.600 281.200 C 204.167 281.200,204.800 281.363,204.800 277.894 C 204.800 273.116,205.151 273.202,186.000 273.295 C 177.530 273.337,170.361 273.223,170.070 273.043 C 169.672 272.797,169.567 271.655,169.650 268.458 L 169.760 264.200 168.311 263.413 C 166.864 262.628,166.860 262.628,164.731 263.475 C 163.350 264.025,162.094 264.254,161.163 264.125 C 157.067 263.561,155.677 265.154,155.623 270.476 C 155.592 273.549,156.372 273.392,140.800 273.464 C 121.318 273.554,122.621 273.493,121.544 274.364 C 120.751 275.006,120.568 275.597,120.400 278.064 L 120.200 281.000 106.247 281.105 C 89.761 281.230,91.200 281.717,91.200 276.005 C 91.200 269.801,91.007 269.600,85.051 269.600 C 79.319 269.600,79.600 269.941,79.600 262.980 C 79.600 253.452,80.185 253.877,66.928 253.766 C 55.374 253.669,56.000 253.830,56.000 250.950 C 56.000 248.676,55.535 247.357,54.435 246.513 C 53.417 245.731,44.630 245.827,43.829 246.629 M53.520 248.480 C 53.784 248.744,54.000 249.812,54.000 250.854 C 54.000 255.586,54.239 255.680,66.399 255.746 C 78.704 255.813,77.600 255.090,77.600 263.080 L 77.600 269.262 78.796 270.458 L 79.992 271.654 84.107 271.378 C 89.225 271.036,89.088 270.893,89.263 276.735 C 89.396 281.134,89.434 281.300,90.522 282.235 L 91.645 283.200 106.040 283.200 L 120.436 283.200 121.418 282.218 C 122.240 281.397,122.400 280.849,122.400 278.867 C 122.400 275.420,121.391 275.625,139.644 275.362 L 155.800 275.128 156.700 274.142 C 157.408 273.366,157.603 272.669,157.613 270.878 C 157.632 267.427,157.946 267.200,162.695 267.200 C 167.425 267.200,167.448 267.218,167.676 270.953 C 167.952 275.469,166.804 275.200,185.782 275.200 C 204.236 275.200,203.321 275.018,203.155 278.657 C 202.951 283.134,203.161 283.200,217.751 283.200 L 229.955 283.200 231.078 282.235 C 232.166 281.300,232.204 281.134,232.337 276.735 C 232.512 270.920,232.370 271.066,237.461 271.413 L 241.568 271.693 242.784 270.477 L 244.000 269.262 244.000 263.080 C 244.000 255.478,243.743 255.816,249.561 255.757 C 251.893 255.734,256.435 255.689,259.656 255.657 C 267.035 255.585,267.235 255.471,267.570 251.160 L 267.800 248.200 272.289 248.087 C 277.765 247.949,277.261 246.767,277.113 259.400 L 277.000 269.000 268.265 269.200 L 259.529 269.400 258.565 270.522 C 257.612 271.631,257.600 271.747,257.600 279.999 C 257.600 289.687,258.126 288.816,252.217 288.919 C 245.558 289.036,245.904 288.466,245.837 299.466 L 245.784 308.200 231.153 308.400 C 215.198 308.618,215.651 308.547,214.625 311.002 L 214.096 312.269 200.548 312.534 C 184.565 312.846,136.160 312.791,121.602 312.443 L 111.405 312.200 110.714 310.731 C 109.690 308.554,110.120 308.615,94.400 308.400 L 79.800 308.200 79.599 299.600 C 79.331 288.180,80.099 289.120,70.800 288.816 L 64.200 288.600 64.000 279.910 C 63.736 268.454,64.746 269.464,53.290 269.200 L 44.600 269.000 44.493 259.007 C 44.434 253.511,44.473 248.786,44.580 248.507 C 44.845 247.818,52.833 247.793,53.520 248.480 M142.292 260.641 C 142.160 260.774,142.220 261.325,142.426 261.867 C 142.631 262.409,142.800 263.290,142.800 263.826 C 142.800 264.824,143.957 265.264,144.046 264.300 C 144.072 264.025,144.134 263.620,144.185 263.400 C 144.236 263.180,144.306 262.787,144.339 262.526 C 144.373 262.265,145.028 261.825,145.796 261.547 C 146.729 261.209,147.028 260.938,146.696 260.727 C 146.114 260.358,142.644 260.290,142.292 260.641 M158.298 260.635 C 157.780 261.153,158.444 261.600,159.724 261.594 C 160.862 261.588,162.789 260.844,161.800 260.791 C 161.580 260.779,160.764 260.677,159.988 260.564 C 159.211 260.451,158.451 260.483,158.298 260.635 M164.600 260.777 C 162.588 261.585,166.616 262.653,168.777 261.885 C 169.839 261.508,171.133 261.179,171.654 261.154 C 172.243 261.125,171.996 260.983,171.000 260.777 C 168.976 260.358,165.644 260.358,164.600 260.777 M179.874 260.733 C 179.188 261.012,179.194 261.071,179.982 261.784 L 180.817 262.539 179.781 263.620 L 178.745 264.701 180.571 264.975 C 182.937 265.330,183.009 265.262,182.975 262.737 C 182.944 260.468,182.009 259.864,179.874 260.733 M148.300 261.082 C 148.795 261.178,149.605 261.178,150.100 261.082 C 150.595 260.987,150.190 260.909,149.200 260.909 C 148.210 260.909,147.805 260.987,148.300 261.082 M69.985 326.100 L 68.200 327.000 68.000 331.179 C 67.713 337.178,68.885 336.781,51.090 336.911 C 33.264 337.042,35.200 335.834,35.200 346.833 L 35.200 355.142 34.111 355.998 C 33.073 356.815,32.760 356.842,27.390 356.579 C 18.465 356.141,19.401 351.581,19.523 394.900 C 19.614 427.046,18.871 423.591,25.700 423.618 C 28.569 423.629,30.780 423.844,31.800 424.212 C 34.193 425.074,67.314 425.060,70.164 424.196 C 73.242 423.262,76.473 423.400,77.516 424.511 L 78.372 425.421 78.581 467.211 C 78.696 490.195,78.882 511.250,78.995 514.000 C 79.107 516.750,79.334 543.930,79.499 574.400 L 79.800 629.800 86.800 630.005 C 92.409 630.170,94.054 630.348,95.080 630.905 C 97.037 631.967,130.568 631.965,132.520 630.903 C 133.554 630.341,135.070 630.180,140.400 630.068 C 144.138 629.989,147.217 629.750,147.500 629.516 C 147.891 629.192,148.000 623.071,148.000 601.382 L 148.000 573.661 148.958 572.523 L 149.916 571.384 162.527 571.284 L 175.137 571.184 176.268 572.157 L 177.400 573.130 177.600 601.465 L 177.800 629.800 184.800 630.031 C 189.233 630.178,192.240 630.456,193.000 630.790 C 195.198 631.755,228.733 631.761,230.915 630.796 C 232.350 630.162,233.643 630.038,238.989 630.023 C 242.490 630.014,245.485 629.870,245.645 629.703 C 245.804 629.536,246.013 602.130,246.108 568.800 C 246.233 524.619,246.405 507.821,246.740 506.803 C 247.078 505.777,247.200 490.631,247.200 449.792 C 247.200 384.945,246.486 392.400,252.699 392.400 L 256.952 392.400 258.800 394.400 L 260.648 396.400 282.302 396.400 L 303.955 396.400 304.971 395.500 C 305.973 394.612,305.989 394.503,306.145 387.600 C 306.232 383.750,306.505 380.093,306.752 379.474 C 307.501 377.593,307.365 343.769,306.600 341.600 C 306.163 340.361,306.000 338.169,306.000 333.532 C 306.000 327.296,305.979 327.143,305.014 326.178 L 304.028 325.191 250.228 325.296 C 199.245 325.395,196.391 325.437,195.714 326.112 C 195.142 326.683,194.960 327.718,194.800 331.312 L 194.600 335.800 163.044 335.902 C 140.063 335.977,131.340 335.882,130.944 335.553 C 130.547 335.224,130.400 333.933,130.400 330.761 L 130.400 326.421 129.220 325.810 C 128.195 325.280,124.342 325.200,99.905 325.200 L 71.770 325.200 69.985 326.100 M128.051 327.063 C 128.439 327.532,128.600 328.951,128.600 331.898 C 128.600 335.972,128.626 336.091,129.722 337.034 L 130.845 338.000 162.592 338.000 L 194.339 338.000 195.569 336.964 L 196.800 335.929 196.800 331.579 C 196.800 327.687,196.882 327.184,197.574 326.814 C 198.935 326.086,303.780 326.253,304.387 326.984 C 304.701 327.362,304.872 329.093,304.873 331.884 C 304.874 334.258,304.910 349.160,304.954 365.000 C 305.021 389.615,304.949 393.902,304.454 394.500 C 303.917 395.151,302.364 395.200,282.357 395.200 L 260.837 395.200 260.119 394.151 C 258.115 391.227,258.050 391.200,253.040 391.200 C 248.759 391.200,248.368 391.266,247.322 392.165 L 246.200 393.131 246.107 448.665 C 246.049 483.492,245.868 504.722,245.621 505.600 L 245.229 507.000 229.514 506.800 C 220.871 506.689,183.794 506.618,147.121 506.642 C 86.256 506.682,80.414 506.629,80.121 506.043 C 79.944 505.689,79.710 487.091,79.600 464.714 C 79.417 427.443,79.344 423.972,78.734 423.362 C 78.126 422.754,75.605 422.689,50.134 422.622 C 34.770 422.581,21.889 422.407,21.508 422.234 C 20.802 421.914,20.238 374.210,20.800 362.400 L 21.000 358.200 27.736 358.000 L 34.471 357.800 35.436 356.678 C 36.388 355.569,36.400 355.453,36.400 347.201 C 36.400 342.347,36.559 338.749,36.781 338.612 C 36.990 338.483,43.449 338.380,51.133 338.384 C 70.523 338.393,70.800 338.293,70.800 331.317 C 70.800 327.395,70.848 327.155,71.700 326.812 C 73.542 326.072,127.429 326.312,128.051 327.063 M201.801 678.000 L 193.802 678.200 193.356 679.600 C 192.484 682.338,192.320 699.803,193.159 700.563 C 194.325 701.618,229.415 701.577,230.426 700.520 C 231.269 699.638,230.952 680.543,230.068 678.913 C 229.522 677.909,219.009 677.570,201.801 678.000 M95.455 678.900 C 94.518 680.397,94.234 699.726,95.138 700.544 C 95.708 701.060,98.457 701.183,113.491 701.367 L 131.174 701.584 132.197 700.692 L 133.220 699.800 132.807 690.000 C 132.580 684.610,132.193 679.705,131.948 679.100 L 131.503 678.000 113.761 678.000 L 96.018 678.000 95.455 678.900 M106.420 696.032 C 106.822 696.682,106.453 697.600,105.791 697.600 C 105.502 697.600,105.207 697.769,105.133 697.976 C 104.937 698.530,97.561 697.333,96.861 696.633 C 96.347 696.118,96.392 696.020,97.238 695.830 C 100.047 695.197,105.985 695.328,106.420 696.032 M115.669 697.400 C 117.443 699.970,117.399 700.000,111.843 700.000 C 107.805 700.000,106.843 699.889,106.655 699.400 C 106.499 698.992,106.677 698.800,107.213 698.800 C 107.646 698.800,108.001 698.665,108.001 698.500 C 108.018 695.241,113.625 694.437,115.669 697.400 M207.400 697.899 L 207.400 699.999 205.000 700.000 L 202.600 700.001 202.648 698.156 C 202.706 695.953,203.182 695.556,205.600 695.696 L 207.400 695.800 207.400 697.899 M222.500 696.300 C 222.445 696.575,222.560 696.800,222.757 696.800 C 222.953 696.800,223.215 697.205,223.339 697.700 C 223.519 698.414,223.846 698.599,224.928 698.595 C 226.425 698.589,227.742 697.748,227.449 696.985 C 227.204 696.345,227.973 695.600,228.880 695.600 C 229.487 695.600,229.600 695.949,229.600 697.833 L 229.600 700.065 224.533 699.933 C 220.932 699.838,219.417 699.655,219.299 699.300 C 219.188 698.965,218.234 698.800,216.413 698.800 C 213.962 698.800,213.628 698.702,213.046 697.814 C 211.657 695.694,211.927 695.566,217.500 695.688 C 221.320 695.772,222.575 695.925,222.500 696.300 M125.200 696.800 C 126.856 697.645,129.394 697.844,130.400 697.209 C 131.066 696.787,131.523 697.523,131.572 699.100 C 131.600 699.989,131.534 700.000,126.394 700.000 L 121.189 700.000 121.431 698.700 C 121.653 697.508,121.894 696.347,121.969 696.100 C 122.080 695.737,123.882 696.128,125.200 696.800 M198.514 699.033 C 201.058 699.899,200.922 700.000,197.200 700.000 L 194.000 700.000 194.000 697.922 L 194.000 695.843 195.314 697.116 C 196.036 697.817,197.476 698.679,198.514 699.033 " stroke="none" fill="#9a7350" fill-rule="evenodd"></path><path id="path1" d="M84.337 4.700 C 84.302 7.285,84.318 10.329,84.373 11.463 C 84.614 16.459,82.942 17.600,75.384 17.600 C 70.217 17.600,69.888 17.648,69.171 18.500 L 68.414 19.400 68.160 18.500 C 67.814 17.272,58.817 17.098,57.495 18.295 C 56.767 18.954,56.702 18.954,56.220 18.295 C 55.894 17.850,55.175 17.600,54.218 17.600 L 52.724 17.600 52.862 30.200 C 52.988 41.729,52.842 44.066,52.117 42.100 C 51.658 40.857,51.180 40.812,38.199 40.806 L 25.399 40.800 25.308 54.700 C 25.199 71.481,25.199 71.489,27.038 71.833 C 29.007 72.203,29.064 72.689,27.203 73.246 C 26.074 73.585,25.513 74.007,25.355 74.637 C 25.020 75.970,24.712 76.011,14.804 76.016 L 5.704 76.021 5.711 88.011 L 5.718 100.000 7.459 100.000 C 8.417 100.000,9.171 99.865,9.136 99.700 C 9.102 99.535,9.213 99.080,9.383 98.690 C 9.728 97.901,10.800 98.444,10.800 99.407 C 10.800 99.782,12.053 99.953,15.580 100.058 C 18.802 100.154,20.530 100.370,20.880 100.720 C 21.399 101.239,21.544 143.373,21.146 178.200 L 21.000 191.000 27.400 191.207 C 36.482 191.500,35.968 190.863,36.028 201.903 C 36.053 206.694,36.233 209.997,36.484 210.300 C 36.993 210.915,48.460 211.010,49.585 210.408 C 50.284 210.034,50.318 208.666,50.349 180.127 L 50.381 150.237 51.400 149.219 C 52.363 148.255,52.651 148.199,56.709 148.190 C 62.519 148.177,62.000 149.259,62.000 137.158 L 62.000 126.764 62.982 125.782 L 63.964 124.800 95.720 124.800 C 125.965 124.800,127.507 124.765,128.137 124.069 C 128.722 123.424,128.797 121.962,128.787 111.533 C 128.781 105.040,128.893 99.423,129.036 99.049 C 129.773 97.131,127.400 97.200,192.411 97.200 L 253.262 97.200 254.431 98.369 L 255.600 99.538 255.620 105.669 C 255.631 109.041,255.622 116.071,255.601 121.291 C 255.553 133.192,255.183 132.400,260.792 132.400 C 264.828 132.400,265.240 132.472,266.278 133.365 L 267.400 134.331 267.506 172.032 C 267.582 198.870,267.740 209.886,268.055 210.266 C 268.654 210.988,280.403 211.037,281.120 210.320 C 281.462 209.978,281.600 207.466,281.600 201.556 L 281.600 193.271 282.831 192.236 L 284.061 191.200 292.188 191.200 C 299.229 191.200,300.347 191.116,300.557 190.567 C 300.998 189.418,300.835 52.813,300.392 51.984 C 300.005 51.263,299.439 51.223,290.001 51.267 C 276.912 51.329,277.502 51.823,277.271 40.600 C 277.190 36.640,276.948 33.186,276.734 32.925 C 276.450 32.579,273.076 32.444,264.272 32.426 C 249.115 32.396,250.280 32.931,250.000 25.878 C 249.889 23.093,249.607 20.646,249.370 20.409 C 249.082 20.122,244.953 19.980,236.924 19.981 C 223.442 19.983,224.551 20.232,222.747 16.800 C 221.866 15.126,221.791 14.476,221.669 7.500 L 221.538 0.000 152.969 0.000 L 84.400 0.000 84.337 4.700 M73.214 24.826 C 74.002 26.298,72.795 27.225,71.432 26.194 C 70.688 25.631,70.687 25.588,71.394 24.806 C 72.315 23.789,72.661 23.793,73.214 24.826 M58.414 35.314 C 58.422 35.141,58.677 35.449,58.980 35.997 C 59.641 37.191,59.232 37.585,57.324 37.594 C 55.710 37.602,55.354 37.035,56.179 35.776 C 56.714 34.960,56.965 34.860,57.614 35.207 C 58.046 35.439,58.406 35.487,58.414 35.314 M65.357 36.233 C 65.700 37.127,65.673 37.200,65.000 37.200 C 64.667 37.200,64.400 36.844,64.400 36.400 C 64.400 35.446,65.014 35.339,65.357 36.233 M34.629 49.486 C 33.548 50.053,32.400 49.797,32.400 48.991 C 32.400 48.241,33.210 48.073,34.493 48.558 L 35.603 48.976 34.629 49.486 M30.132 52.567 C 30.252 52.879,30.108 53.226,29.814 53.339 C 29.120 53.606,28.799 53.269,29.070 52.561 C 29.347 51.840,29.854 51.843,30.132 52.567 M45.441 57.020 C 46.241 60.210,45.390 63.067,44.445 60.358 C 43.875 58.723,43.874 57.200,44.443 57.200 C 44.686 57.200,44.782 56.930,44.655 56.600 C 44.529 56.270,44.596 56.000,44.805 56.000 C 45.014 56.000,45.300 56.459,45.441 57.020 M38.639 59.000 C 38.668 60.100,38.743 61.997,38.805 63.216 C 38.930 65.660,38.340 67.203,37.286 67.194 C 35.612 67.179,35.428 66.641,35.401 61.707 L 35.375 56.968 36.980 56.984 L 38.585 57.000 38.639 59.000 M49.294 72.466 C 49.068 72.692,48.250 72.731,47.352 72.561 L 45.800 72.266 47.398 71.557 C 49.049 70.824,50.324 71.436,49.294 72.466 M26.167 79.443 C 26.993 79.760,26.969 80.509,26.100 81.549 L 25.400 82.387 24.400 81.588 L 23.400 80.789 24.344 79.995 C 25.417 79.092,25.325 79.120,26.167 79.443 M14.519 88.889 C 13.904 89.569,13.830 89.570,13.109 88.917 C 12.402 88.278,12.395 88.193,13.017 87.738 C 14.122 86.930,15.403 87.912,14.519 88.889 M14.200 95.600 C 14.200 96.677,13.661 96.971,12.800 96.363 C 12.348 96.044,12.324 95.889,12.700 95.736 C 12.975 95.625,13.200 95.263,13.200 94.933 C 13.200 94.603,13.425 94.408,13.700 94.500 C 13.975 94.592,14.200 95.087,14.200 95.600 M26.174 111.558 C 26.296 111.755,26.126 112.019,25.798 112.146 C 25.435 112.285,25.200 112.144,25.200 111.787 C 25.200 111.140,25.825 110.993,26.174 111.558 M108.600 165.590 L 107.000 165.800 106.800 171.000 C 106.690 173.860,106.690 182.140,106.800 189.400 L 107.000 202.600 115.146 202.920 C 122.538 203.211,123.362 203.178,124.046 202.558 C 125.053 201.647,125.238 166.861,124.240 166.033 C 123.647 165.541,111.583 165.199,108.600 165.590 M193.355 166.050 C 192.475 167.023,192.658 201.465,193.549 202.539 C 194.297 203.440,209.616 203.544,210.356 202.653 C 210.921 201.972,211.123 166.551,210.564 166.026 C 209.756 165.268,194.043 165.289,193.355 166.050 M142.591 237.094 C 142.049 237.702,141.251 238.605,140.817 239.100 C 140.090 239.930,139.689 240.000,135.676 240.000 C 131.265 240.000,130.000 240.424,130.000 241.902 C 130.000 243.302,127.936 244.000,123.795 244.000 C 119.133 244.000,118.934 244.111,118.547 246.935 C 118.094 250.243,116.992 250.070,136.764 249.794 C 146.354 249.660,154.605 249.469,155.100 249.368 C 156.175 249.149,156.543 237.324,155.500 236.506 C 155.225 236.290,152.430 236.085,149.288 236.050 L 143.576 235.987 142.591 237.094 M166.132 236.729 C 165.067 237.787,165.398 249.144,166.500 249.367 C 166.995 249.467,176.150 249.655,186.844 249.783 C 208.751 250.047,207.373 250.241,206.945 246.959 C 206.552 243.946,206.687 244.000,199.551 244.000 C 192.563 244.000,192.603 244.013,191.119 241.263 L 190.437 240.000 185.848 240.000 C 181.063 240.000,179.600 239.382,179.600 237.360 C 179.600 235.941,167.494 235.373,166.132 236.729 M16.838 239.858 L 15.898 240.517 16.186 246.758 C 16.520 253.973,16.532 254.000,19.600 254.000 C 22.675 254.000,22.695 253.958,23.025 246.757 L 23.310 240.522 22.366 239.861 C 21.139 239.002,18.063 239.000,16.838 239.858 M44.580 248.507 C 44.473 248.786,44.434 253.511,44.493 259.007 L 44.600 269.000 53.290 269.200 C 64.746 269.464,63.736 268.454,64.000 279.910 L 64.200 288.600 70.800 288.816 C 80.099 289.120,79.331 288.180,79.599 299.600 L 79.800 308.200 94.400 308.400 C 110.120 308.615,109.690 308.554,110.714 310.731 L 111.405 312.200 121.602 312.443 C 136.160 312.791,184.565 312.846,200.548 312.534 L 214.096 312.269 214.625 311.002 C 215.651 308.547,215.198 308.618,231.153 308.400 L 245.784 308.200 245.837 299.466 C 245.904 288.466,245.558 289.036,252.217 288.919 C 258.126 288.816,257.600 289.687,257.600 279.999 C 257.600 271.747,257.612 271.631,258.565 270.522 L 259.529 269.400 268.265 269.200 L 277.000 269.000 277.113 259.400 C 277.261 246.767,277.765 247.949,272.289 248.087 L 267.800 248.200 267.570 251.160 C 267.235 255.471,267.035 255.585,259.656 255.657 C 241.936 255.831,244.000 254.853,244.000 263.080 L 244.000 269.262 242.784 270.477 L 241.568 271.693 237.461 271.413 C 232.370 271.066,232.512 270.920,232.337 276.735 C 232.204 281.134,232.166 281.300,231.078 282.235 L 229.955 283.200 217.751 283.200 C 203.161 283.200,202.951 283.134,203.155 278.657 C 203.321 275.018,204.236 275.200,185.782 275.200 C 166.804 275.200,167.952 275.469,167.676 270.953 C 167.448 267.218,167.425 267.200,162.695 267.200 C 157.946 267.200,157.632 267.427,157.613 270.878 C 157.603 272.669,157.408 273.366,156.700 274.142 L 155.800 275.128 139.644 275.362 C 121.391 275.625,122.400 275.420,122.400 278.867 C 122.400 280.849,122.240 281.397,121.418 282.218 L 120.436 283.200 106.040 283.200 L 91.645 283.200 90.522 282.235 C 89.434 281.300,89.396 281.134,89.263 276.735 C 89.088 270.893,89.225 271.036,84.107 271.378 L 79.992 271.654 78.796 270.458 L 77.600 269.262 77.600 263.080 C 77.600 255.090,78.704 255.813,66.399 255.746 C 54.239 255.680,54.000 255.586,54.000 250.854 C 54.000 249.812,53.784 248.744,53.520 248.480 C 52.833 247.793,44.845 247.818,44.580 248.507 M71.700 326.812 C 70.848 327.155,70.800 327.395,70.800 331.317 C 70.800 338.293,70.523 338.393,51.133 338.384 C 43.449 338.380,36.990 338.483,36.781 338.612 C 36.559 338.749,36.400 342.347,36.400 347.201 C 36.400 355.453,36.388 355.569,35.436 356.678 L 34.471 357.800 27.736 358.000 L 21.000 358.200 20.800 362.400 C 20.238 374.210,20.802 421.914,21.508 422.234 C 21.889 422.407,34.770 422.581,50.134 422.622 C 75.605 422.689,78.126 422.754,78.734 423.362 C 79.344 423.972,79.417 427.443,79.600 464.714 C 79.710 487.091,79.944 505.689,80.121 506.043 C 80.414 506.629,86.256 506.682,147.121 506.642 C 183.794 506.618,220.871 506.689,229.514 506.800 L 245.229 507.000 245.621 505.600 C 245.868 504.722,246.049 483.492,246.107 448.665 L 246.200 393.131 247.322 392.165 C 248.368 391.266,248.759 391.200,253.040 391.200 C 258.050 391.200,258.115 391.227,260.119 394.151 L 260.837 395.200 282.357 395.200 C 302.364 395.200,303.917 395.151,304.454 394.500 C 304.949 393.902,305.021 389.615,304.954 365.000 C 304.910 349.160,304.874 334.258,304.873 331.884 C 304.872 329.093,304.701 327.362,304.387 326.984 C 303.780 326.253,198.935 326.086,197.574 326.814 C 196.882 327.184,196.800 327.687,196.800 331.579 L 196.800 335.929 195.569 336.964 L 194.339 338.000 162.592 338.000 L 130.845 338.000 129.722 337.034 C 128.626 336.091,128.600 335.972,128.600 331.898 C 128.600 328.951,128.439 327.532,128.051 327.063 C 127.429 326.312,73.542 326.072,71.700 326.812 M99.800 695.498 C 96.847 695.711,96.192 695.964,96.861 696.633 C 97.561 697.333,104.937 698.530,105.133 697.976 C 105.207 697.769,105.502 697.600,105.791 697.600 C 106.453 697.600,106.822 696.682,106.420 696.032 C 106.112 695.535,102.890 695.274,99.800 695.498 M108.807 696.881 C 108.365 697.606,108.002 698.335,108.001 698.500 C 108.001 698.665,107.646 698.800,107.213 698.800 C 106.677 698.800,106.499 698.992,106.655 699.400 C 106.964 700.205,116.808 700.302,116.787 699.500 C 116.696 696.104,110.517 694.076,108.807 696.881 M203.248 695.951 C 202.925 696.162,202.677 697.075,202.648 698.156 L 202.600 700.001 205.000 700.000 L 207.400 699.999 207.400 697.899 L 207.400 695.800 205.600 695.696 C 204.610 695.638,203.552 695.753,203.248 695.951 M212.400 696.202 C 212.400 698.034,213.583 698.800,216.413 698.800 C 218.234 698.800,219.188 698.965,219.299 699.300 C 219.417 699.655,220.932 699.838,224.533 699.933 L 229.600 700.065 229.600 697.833 C 229.600 695.949,229.487 695.600,228.880 695.600 C 227.973 695.600,227.204 696.345,227.449 696.985 C 227.742 697.748,226.425 698.589,224.928 698.595 C 223.846 698.599,223.519 698.414,223.339 697.700 C 223.215 697.205,222.953 696.800,222.757 696.800 C 222.560 696.800,222.445 696.575,222.500 696.300 C 222.575 695.925,221.320 695.772,217.500 695.688 C 213.091 695.591,212.400 695.661,212.400 696.202 M121.969 696.100 C 121.894 696.347,121.653 697.508,121.431 698.700 L 121.189 700.000 126.394 700.000 C 131.534 700.000,131.600 699.989,131.572 699.100 C 131.523 697.523,131.066 696.787,130.400 697.209 C 129.394 697.844,126.856 697.645,125.200 696.800 C 123.882 696.128,122.080 695.737,121.969 696.100 M194.000 697.922 L 194.000 700.000 197.200 700.000 C 200.922 700.000,201.058 699.899,198.514 699.033 C 197.476 698.679,196.036 697.817,195.314 697.116 L 194.000 695.843 194.000 697.922 " stroke="none" fill="#3c2311" fill-rule="evenodd"></path><path id="path2" d="M81.200 6.976 C 81.200 12.121,81.069 14.036,80.700 14.271 C 80.425 14.446,73.979 14.613,66.375 14.641 C 48.303 14.707,50.000 13.387,50.000 27.377 C 50.000 34.751,49.877 37.204,49.492 37.524 C 49.169 37.792,44.621 37.992,36.992 38.073 C 24.155 38.209,23.520 38.306,22.781 40.250 C 22.563 40.823,22.400 47.998,22.400 57.002 C 22.400 65.665,22.252 72.844,22.071 72.956 C 21.890 73.068,18.036 73.243,13.507 73.346 C 1.844 73.611,2.800 72.325,2.800 87.748 C 2.800 103.727,2.262 102.769,11.251 102.787 C 16.066 102.797,17.607 102.927,17.960 103.352 C 18.448 103.939,18.652 189.055,18.171 190.973 C 17.864 192.195,16.316 192.350,6.900 192.101 L 0.000 191.918 0.000 219.359 L 0.000 246.800 3.900 246.897 C 6.045 246.950,9.131 246.995,10.757 246.997 C 14.195 247.001,14.326 247.142,14.372 250.920 C 14.424 255.198,15.279 256.000,19.788 256.000 C 23.971 256.000,24.440 255.538,24.795 251.066 C 24.946 249.158,25.163 247.503,25.277 247.389 C 25.784 246.882,40.760 247.004,41.278 247.520 C 41.674 247.914,41.829 250.525,41.919 258.320 C 42.084 272.558,41.303 271.600,52.739 271.600 C 62.525 271.600,61.600 270.675,61.600 280.461 C 61.600 291.553,61.067 290.903,70.400 291.194 L 77.000 291.400 77.200 300.090 C 77.470 311.837,75.484 310.548,93.707 310.800 L 108.193 311.000 108.831 312.351 C 109.901 314.619,110.547 314.770,119.274 314.786 C 129.692 314.805,129.200 314.567,129.200 319.582 C 129.200 323.408,129.160 323.593,128.300 323.781 C 127.805 323.888,114.530 324.036,98.800 324.108 C 63.694 324.269,66.000 323.765,66.000 331.275 C 66.000 336.387,67.272 336.000,50.449 336.000 L 36.445 336.000 35.322 336.965 L 34.200 337.929 34.000 346.665 L 33.800 355.400 26.800 355.624 C 22.950 355.747,19.760 355.882,19.710 355.924 C 18.103 357.285,17.556 421.269,19.135 423.219 C 19.973 424.255,22.384 424.720,27.200 424.777 C 28.850 424.796,30.470 424.983,30.800 425.191 C 31.458 425.607,31.743 505.373,31.095 507.688 C 30.561 509.597,29.731 509.758,19.242 509.987 L 9.484 510.200 8.726 511.216 C 8.018 512.167,7.970 513.094,7.983 525.605 L 7.997 538.978 8.931 539.912 L 9.864 540.846 27.232 540.973 C 55.532 541.181,68.727 540.845,69.614 539.893 C 70.302 539.154,70.342 536.436,70.468 482.392 C 70.541 451.193,70.750 425.516,70.933 425.333 C 71.116 425.150,72.556 425.000,74.133 425.000 L 77.000 425.000 77.242 470.600 C 77.375 495.680,77.510 541.729,77.542 572.931 L 77.600 629.662 78.769 630.831 L 79.938 632.000 86.069 632.013 C 90.883 632.023,92.370 632.154,92.993 632.625 C 94.068 633.438,94.772 674.309,93.770 677.773 C 93.342 679.253,93.200 682.316,93.200 690.050 L 93.200 700.355 94.165 701.478 L 95.130 702.600 113.162 702.712 C 132.728 702.833,133.168 702.790,133.983 700.645 C 134.499 699.288,134.132 679.013,133.561 677.280 C 132.663 674.562,133.290 633.319,134.240 632.601 C 134.825 632.158,136.457 632.023,141.318 632.013 C 150.890 631.993,150.165 634.788,149.947 598.762 C 149.825 578.647,149.893 574.412,150.349 573.862 C 151.230 572.799,173.971 572.863,174.938 573.931 C 175.540 574.597,175.600 577.104,175.600 601.713 C 175.600 634.951,174.766 632.000,184.161 632.000 C 191.120 632.000,191.470 632.154,191.799 635.352 C 192.343 640.650,192.285 676.113,191.729 677.964 C 191.350 679.229,191.200 682.641,191.200 690.041 L 191.200 700.355 192.165 701.478 L 193.130 702.600 211.162 702.712 C 230.847 702.834,231.163 702.801,232.017 700.555 C 232.638 698.923,232.492 680.180,231.839 677.730 C 231.394 676.057,231.319 671.602,231.447 654.530 C 231.638 629.136,230.617 632.000,239.475 632.000 L 245.662 632.000 246.831 630.831 L 248.000 629.662 248.058 574.731 C 248.090 544.519,248.225 491.360,248.358 456.600 L 248.600 393.400 252.797 393.400 L 256.994 393.400 257.706 394.914 C 258.793 397.222,258.558 397.200,282.604 397.200 L 304.755 397.200 305.878 396.235 L 307.000 395.270 307.200 388.067 C 307.310 384.106,307.522 380.744,307.670 380.596 C 307.819 380.447,323.790 380.298,343.161 380.263 L 378.382 380.200 379.431 379.151 L 380.480 378.101 380.437 337.351 C 380.413 314.938,380.280 294.612,380.143 292.183 C 380.005 289.753,380.024 286.011,380.185 283.867 C 380.582 278.565,380.031 278.824,391.126 278.725 L 400.000 278.646 400.000 253.135 L 400.000 227.623 381.409 227.512 L 362.818 227.400 361.825 226.400 C 360.840 225.407,360.832 225.334,360.554 215.480 L 360.275 205.560 359.283 204.780 C 357.651 203.496,343.303 203.596,342.129 204.900 C 341.301 205.818,341.165 224.106,341.197 330.118 C 341.200 339.161,341.192 339.244,340.259 340.178 L 339.317 341.119 323.651 341.018 C 315.034 340.963,307.853 340.787,307.692 340.627 C 307.532 340.467,307.299 337.245,307.175 333.468 C 306.947 326.530,306.666 325.189,305.311 324.569 C 304.920 324.390,280.655 324.213,251.390 324.177 C 222.124 324.141,197.779 323.984,197.290 323.829 C 196.449 323.562,196.400 323.328,196.400 319.587 C 196.400 314.538,195.878 314.800,205.955 314.800 C 214.827 314.800,215.436 314.667,216.609 312.477 L 217.401 311.000 232.133 310.800 C 250.046 310.557,248.000 311.871,248.000 300.604 C 248.000 290.533,247.641 291.200,253.061 291.200 C 259.949 291.200,260.000 291.119,260.000 280.220 C 260.000 270.700,259.049 271.600,269.106 271.600 C 280.349 271.600,279.600 272.530,279.600 258.566 C 279.600 253.145,279.774 248.393,279.995 247.814 L 280.389 246.776 300.056 246.815 C 319.198 246.854,319.744 246.834,320.521 246.057 C 321.301 245.277,321.581 240.296,321.598 226.900 C 321.601 224.578,322.525 223.739,325.467 223.385 C 330.998 222.720,330.949 215.600,325.414 215.600 C 323.155 215.600,321.600 214.785,321.600 213.600 C 321.600 212.418,323.155 211.600,325.400 211.600 C 328.500 211.600,329.200 210.907,329.200 207.839 C 329.200 204.729,328.667 204.163,325.506 203.915 C 322.079 203.646,321.749 203.185,321.408 198.176 C 320.987 192.008,321.455 192.304,312.034 192.238 C 304.926 192.188,304.280 192.124,303.762 191.415 C 303.285 190.763,303.200 180.201,303.198 121.224 C 303.195 47.315,303.257 49.596,301.193 47.532 L 300.062 46.400 290.245 46.400 C 278.490 46.400,279.600 47.208,279.600 38.649 C 279.600 32.668,279.565 32.404,278.635 31.322 L 277.670 30.200 265.214 30.079 C 255.986 29.989,252.720 29.833,252.612 29.479 C 252.531 29.215,252.363 26.797,252.239 24.103 C 251.823 15.066,252.456 15.450,237.559 15.200 C 229.278 15.061,225.497 14.858,225.174 14.535 C 224.756 14.116,224.525 10.339,224.428 2.300 C 224.406 0.535,224.261 0.000,223.800 0.000 C 222.595 0.000,222.954 13.309,224.217 15.465 L 225.234 17.200 237.184 17.200 L 249.135 17.200 250.067 18.700 C 250.886 20.017,251.016 20.798,251.133 25.100 C 251.312 31.733,250.110 31.200,264.889 31.200 C 279.739 31.200,278.400 30.435,278.400 38.915 C 278.400 44.461,278.484 45.197,279.300 46.815 L 280.200 48.600 290.295 48.707 L 300.391 48.814 301.195 50.391 C 301.992 51.953,302.000 52.624,302.000 121.802 L 302.000 191.636 301.012 192.624 L 300.025 193.612 291.912 193.506 L 283.800 193.400 283.707 201.600 C 283.574 213.356,284.152 212.623,274.800 212.890 C 267.306 213.104,267.333 213.094,267.279 215.520 C 267.255 216.554,267.173 222.272,267.096 228.228 C 266.883 244.534,267.799 243.719,249.889 243.548 C 230.957 243.369,224.301 243.378,219.516 243.590 L 215.232 243.781 213.988 242.590 C 211.056 239.785,210.997 239.536,211.023 230.000 C 211.067 213.891,211.261 208.262,211.820 206.909 C 212.593 205.032,212.452 205.003,202.242 204.972 L 193.083 204.945 192.142 203.850 L 191.200 202.755 191.200 184.007 L 191.200 165.258 192.254 164.429 C 193.629 163.347,209.164 163.147,211.171 164.185 C 212.832 165.044,212.800 164.681,212.800 182.813 C 212.800 201.299,213.031 203.991,214.531 203.009 C 215.175 202.587,215.814 202.529,217.000 202.787 C 220.702 203.590,231.082 204.019,236.633 203.598 C 240.384 203.313,244.812 203.303,250.383 203.567 C 254.902 203.781,259.680 203.930,261.000 203.896 C 262.320 203.863,263.712 203.981,264.094 204.159 C 264.629 204.407,264.882 204.235,265.194 203.415 C 265.634 202.259,265.791 136.164,265.357 135.033 C 265.155 134.507,264.342 134.400,260.539 134.400 C 256.215 134.400,255.910 134.346,254.982 133.418 C 253.857 132.293,253.906 132.920,253.773 118.200 C 253.725 112.920,253.621 106.628,253.543 104.217 L 253.400 99.834 252.000 99.522 C 250.483 99.183,133.173 99.137,131.716 99.474 L 130.831 99.679 130.716 112.620 C 130.627 122.579,130.480 125.681,130.080 126.081 C 129.666 126.495,122.935 126.641,96.880 126.800 L 64.200 127.000 64.125 137.200 C 64.021 151.243,64.465 150.381,57.349 150.367 C 55.002 150.362,52.932 150.508,52.748 150.692 C 52.333 151.107,52.317 200.800,52.732 203.000 C 52.972 204.275,53.192 204.579,53.816 204.498 C 56.214 204.185,56.946 203.997,57.732 203.491 C 59.188 202.553,60.309 202.450,62.297 203.072 C 63.889 203.570,66.359 203.629,77.400 203.435 C 88.832 203.234,93.211 203.355,101.889 204.113 C 104.767 204.364,104.589 205.565,104.703 185.115 C 104.818 164.432,104.768 165.044,106.386 164.207 C 108.627 163.049,124.051 163.338,125.478 164.566 L 126.600 165.532 126.590 184.144 L 126.581 202.756 125.677 203.718 C 124.795 204.656,124.560 204.688,116.286 204.962 C 106.681 205.281,105.817 205.400,106.248 206.349 C 106.629 207.189,106.622 208.321,106.215 212.000 C 105.812 215.636,105.796 215.250,106.588 220.972 C 106.942 223.532,107.136 226.205,107.019 226.913 C 106.902 227.621,106.940 230.774,107.103 233.919 C 107.478 241.144,106.741 242.400,102.126 242.400 C 101.067 242.400,98.040 242.752,95.400 243.181 C 88.558 244.295,73.485 244.022,55.800 242.465 C 49.730 241.931,49.626 241.738,49.859 231.432 C 49.960 226.977,49.863 221.578,49.644 219.434 C 49.406 217.108,49.389 215.156,49.602 214.596 C 50.087 213.319,47.661 212.800,41.203 212.800 C 36.749 212.800,36.373 212.738,35.322 211.834 L 34.200 210.869 34.157 202.671 C 34.101 192.110,34.886 193.200,27.344 193.200 C 22.156 193.200,20.940 193.089,20.358 192.562 C 19.690 191.958,19.665 189.599,19.882 147.799 L 20.110 103.674 19.073 102.637 C 18.046 101.610,17.977 101.600,11.818 101.600 C 3.275 101.600,4.068 102.980,4.049 88.078 C 4.031 73.315,2.871 74.923,13.674 74.733 C 21.517 74.595,21.997 74.542,22.875 73.717 L 23.802 72.847 23.750 56.814 L 23.697 40.781 24.703 39.991 C 25.653 39.243,26.360 39.200,37.638 39.200 C 52.847 39.200,51.200 40.634,51.200 27.387 C 51.200 18.146,51.260 17.270,51.931 16.662 C 52.583 16.072,54.199 16.000,66.696 16.000 L 80.729 16.000 81.764 14.769 C 83.211 13.050,83.419 0.000,82.000 0.000 C 81.231 0.000,81.200 0.267,81.200 6.976 M156.395 234.797 C 157.790 235.544,158.000 236.613,158.000 242.980 L 158.000 249.212 156.700 250.004 C 155.495 250.739,154.663 250.797,145.364 250.799 C 137.624 250.800,134.878 250.936,133.364 251.396 C 131.984 251.814,129.521 251.993,125.082 251.996 C 117.737 252.001,117.107 251.723,116.587 248.253 C 115.836 243.242,117.159 242.000,123.249 242.000 L 127.590 242.000 128.579 240.434 C 129.927 238.297,129.937 238.294,135.170 238.032 L 139.795 237.800 140.432 236.449 C 141.519 234.141,142.232 233.958,149.304 234.179 C 152.772 234.288,155.963 234.566,156.395 234.797 M178.907 234.423 C 180.065 234.745,180.573 235.183,181.108 236.321 L 181.803 237.800 186.441 238.000 C 191.505 238.218,192.137 238.474,193.056 240.674 L 193.589 241.947 200.431 242.074 C 208.747 242.227,208.800 242.258,208.800 247.000 C 208.800 251.677,208.653 251.772,201.099 251.927 C 196.449 252.023,194.328 251.900,192.505 251.427 C 190.570 250.926,187.689 250.800,178.142 250.799 C 166.862 250.797,166.126 250.752,164.873 249.988 L 163.546 249.179 163.673 242.603 C 163.831 234.436,163.661 234.692,169.112 234.371 C 175.735 233.982,177.349 233.990,178.907 234.423 M22.897 238.020 C 25.105 238.633,25.104 238.625,24.089 250.336 C 23.727 254.514,23.094 255.200,19.600 255.200 C 15.392 255.200,15.330 255.052,14.560 243.164 C 14.214 237.816,16.682 236.294,22.897 238.020 M54.435 246.513 C 55.535 247.357,56.000 248.676,56.000 250.950 C 56.000 253.830,55.374 253.669,66.928 253.766 C 80.185 253.877,79.600 253.452,79.600 262.980 C 79.600 269.941,79.319 269.600,85.051 269.600 C 91.007 269.600,91.200 269.801,91.200 276.005 C 91.200 281.717,89.761 281.230,106.247 281.105 L 120.200 281.000 120.400 278.064 C 120.568 275.597,120.751 275.006,121.544 274.364 C 122.621 273.493,121.318 273.554,140.800 273.464 C 156.598 273.391,155.600 273.623,155.600 270.025 C 155.600 267.500,154.996 265.937,154.292 266.642 C 153.566 267.367,143.406 266.757,142.532 265.936 C 141.318 264.795,141.011 263.125,141.754 261.690 C 142.538 260.174,143.821 260.097,166.000 260.247 L 182.600 260.359 183.500 261.402 C 187.016 265.475,181.983 267.675,172.813 266.074 C 171.610 265.864,170.395 265.781,170.113 265.889 C 169.405 266.160,169.393 272.625,170.100 273.062 C 170.375 273.232,177.530 273.337,186.000 273.295 C 205.151 273.202,204.800 273.116,204.800 277.894 C 204.800 281.363,204.167 281.200,217.600 281.200 C 231.556 281.200,230.400 281.672,230.400 275.974 C 230.400 269.806,230.598 269.600,236.549 269.600 C 242.296 269.600,242.000 269.973,242.000 262.746 C 242.000 253.327,241.570 253.635,254.460 253.841 C 265.551 254.017,265.600 254.005,265.600 250.990 C 265.600 246.511,266.318 246.000,272.610 246.000 C 278.830 246.000,278.400 245.075,278.400 258.460 L 278.400 269.142 277.314 269.996 C 276.281 270.809,275.911 270.841,269.814 270.659 C 258.331 270.317,258.800 269.893,258.800 280.607 C 258.800 290.783,258.958 290.520,253.071 290.134 C 249.373 289.891,249.133 289.924,248.191 290.809 L 247.200 291.739 247.200 299.825 C 247.200 307.089,247.125 308.004,246.462 308.823 L 245.724 309.734 231.419 309.777 C 215.425 309.825,217.246 309.513,215.081 312.581 L 214.363 313.600 206.245 313.600 C 200.277 313.600,197.613 313.755,196.185 314.185 C 193.159 315.095,132.856 315.135,129.416 314.228 C 127.636 313.759,125.035 313.600,119.153 313.600 L 111.274 313.600 109.581 311.577 L 107.887 309.554 94.244 309.828 L 80.600 310.101 79.500 309.221 L 78.400 308.342 78.400 300.153 C 78.400 289.402,78.875 290.000,70.350 290.000 C 62.173 290.000,62.800 290.780,62.800 280.614 C 62.800 269.892,63.491 270.486,50.962 270.429 C 42.524 270.391,43.302 271.556,43.187 258.800 C 43.078 246.709,43.041 247.416,43.829 246.629 C 44.630 245.827,53.417 245.731,54.435 246.513 M163.495 251.100 C 164.441 251.720,166.095 251.824,177.981 252.008 C 194.171 252.258,193.132 251.914,192.168 256.695 C 191.891 258.067,190.449 258.776,187.991 258.750 C 186.786 258.737,174.297 258.683,160.238 258.630 L 134.676 258.534 133.938 257.623 C 133.073 256.554,132.909 253.036,133.700 252.524 C 133.975 252.346,139.240 252.110,145.400 252.000 C 154.987 251.829,156.773 251.701,157.800 251.116 C 159.373 250.219,162.141 250.212,163.495 251.100 M129.220 325.810 L 130.400 326.421 130.400 330.761 C 130.400 333.933,130.547 335.224,130.944 335.553 C 131.340 335.882,140.063 335.977,163.044 335.902 L 194.600 335.800 194.800 331.312 C 194.960 327.718,195.142 326.683,195.714 326.112 C 196.391 325.437,199.245 325.395,250.228 325.296 L 304.028 325.191 305.014 326.178 C 305.979 327.143,306.000 327.296,306.000 333.532 C 306.000 338.169,306.163 340.361,306.600 341.600 C 307.365 343.769,307.501 377.593,306.752 379.474 C 306.505 380.093,306.232 383.750,306.145 387.600 C 305.989 394.503,305.973 394.612,304.971 395.500 L 303.955 396.400 282.302 396.400 L 260.648 396.400 258.800 394.400 L 256.952 392.400 252.699 392.400 C 246.486 392.400,247.200 384.945,247.200 449.792 C 247.200 490.631,247.078 505.777,246.740 506.803 C 246.405 507.821,246.233 524.619,246.108 568.800 C 246.013 602.130,245.804 629.536,245.645 629.703 C 245.485 629.870,242.490 630.014,238.989 630.023 C 233.611 630.038,232.355 630.160,230.890 630.807 C 227.938 632.113,195.997 632.005,192.800 630.678 C 192.250 630.449,188.650 630.158,184.800 630.031 L 177.800 629.800 177.600 601.465 L 177.400 573.130 176.268 572.157 L 175.137 571.184 162.527 571.284 L 149.916 571.384 148.958 572.523 L 148.000 573.661 148.000 601.382 C 148.000 623.071,147.891 629.192,147.500 629.516 C 147.217 629.750,144.138 629.989,140.400 630.068 C 134.884 630.184,133.573 630.330,132.418 630.956 C 130.389 632.056,97.109 632.007,95.072 630.901 C 94.056 630.349,92.390 630.169,86.800 630.005 L 79.800 629.800 79.499 574.400 C 79.334 543.930,79.107 516.750,78.995 514.000 C 78.882 511.250,78.696 490.195,78.581 467.211 L 78.372 425.421 77.516 424.511 C 76.473 423.400,73.242 423.262,70.164 424.196 C 67.314 425.060,34.193 425.074,31.800 424.212 C 30.780 423.844,28.569 423.629,25.700 423.618 C 18.871 423.591,19.614 427.046,19.523 394.900 C 19.401 351.581,18.465 356.141,27.390 356.579 C 32.760 356.842,33.073 356.815,34.111 355.998 L 35.200 355.142 35.200 346.833 C 35.200 335.834,33.264 337.042,51.090 336.911 C 68.885 336.781,67.713 337.178,68.000 331.179 L 68.200 327.000 69.985 326.100 L 71.770 325.200 99.905 325.200 C 124.342 325.200,128.195 325.280,129.220 325.810 M230.068 678.913 C 230.952 680.543,231.269 699.638,230.426 700.520 C 229.415 701.577,194.325 701.618,193.159 700.563 C 192.320 699.803,192.484 682.338,193.356 679.600 L 193.802 678.200 201.801 678.000 C 219.009 677.570,229.522 677.909,230.068 678.913 M131.948 679.100 C 132.193 679.705,132.580 684.610,132.807 690.000 L 133.220 699.800 132.197 700.692 L 131.174 701.584 113.491 701.367 C 98.457 701.183,95.708 701.060,95.138 700.544 C 94.234 699.726,94.518 680.397,95.455 678.900 L 96.018 678.000 113.761 678.000 L 131.503 678.000 131.948 679.100 " stroke="none" fill="#dbac8a" fill-rule="evenodd"></path><path id="path3" d="M0.000 96.000 L 0.000 192.000 4.000 192.074 C 16.619 192.307,17.860 192.214,18.162 191.009 C 18.649 189.067,18.453 103.946,17.960 103.352 C 17.607 102.927,16.066 102.797,11.251 102.787 C 2.262 102.769,2.800 103.727,2.800 87.748 C 2.800 72.325,1.844 73.611,13.507 73.346 C 18.036 73.243,21.890 73.068,22.071 72.956 C 22.252 72.844,22.400 65.665,22.400 57.002 C 22.400 47.998,22.563 40.823,22.781 40.250 C 23.520 38.306,24.155 38.209,36.992 38.073 C 44.621 37.992,49.169 37.792,49.492 37.524 C 49.877 37.204,50.000 34.751,50.000 27.377 C 50.000 13.387,48.303 14.707,66.375 14.641 C 73.979 14.613,80.425 14.446,80.700 14.271 C 81.069 14.036,81.200 12.121,81.200 6.976 L 81.200 0.000 40.600 0.000 L 0.000 0.000 0.000 96.000 M224.544 7.043 C 224.660 11.553,224.890 14.250,225.182 14.543 C 225.495 14.856,229.396 15.063,237.559 15.200 C 252.456 15.450,251.823 15.066,252.239 24.103 C 252.363 26.797,252.531 29.215,252.612 29.479 C 252.720 29.833,255.986 29.989,265.214 30.079 L 277.670 30.200 278.635 31.322 C 279.565 32.404,279.600 32.668,279.600 38.649 C 279.600 47.208,278.490 46.400,290.245 46.400 L 300.062 46.400 301.193 47.532 C 303.257 49.596,303.195 47.315,303.198 121.224 C 303.200 180.201,303.285 190.763,303.762 191.415 C 304.280 192.124,304.926 192.188,312.034 192.238 C 321.455 192.304,320.987 192.008,321.408 198.176 C 321.749 203.185,322.079 203.646,325.506 203.915 C 328.667 204.163,329.200 204.729,329.200 207.839 C 329.200 210.907,328.500 211.600,325.400 211.600 C 323.155 211.600,321.600 212.418,321.600 213.600 C 321.600 214.785,323.155 215.600,325.414 215.600 C 328.335 215.600,329.200 216.503,329.200 219.554 C 329.200 222.434,328.646 223.003,325.467 223.385 C 322.525 223.739,321.601 224.578,321.598 226.900 C 321.581 240.296,321.301 245.277,320.521 246.057 C 319.744 246.834,319.198 246.854,300.056 246.815 L 280.389 246.776 279.995 247.814 C 279.774 248.393,279.600 253.145,279.600 258.566 C 279.600 272.530,280.349 271.600,269.106 271.600 C 259.049 271.600,260.000 270.700,260.000 280.220 C 260.000 291.119,259.949 291.200,253.061 291.200 C 247.641 291.200,248.000 290.533,248.000 300.604 C 248.000 311.871,250.046 310.557,232.133 310.800 L 217.401 311.000 216.609 312.477 C 215.436 314.667,214.827 314.800,205.955 314.800 C 195.878 314.800,196.400 314.538,196.400 319.587 C 196.400 323.328,196.449 323.562,197.290 323.829 C 197.779 323.984,222.124 324.141,251.390 324.177 C 280.655 324.213,304.920 324.390,305.311 324.569 C 306.666 325.189,306.947 326.530,307.175 333.468 C 307.299 337.245,307.532 340.467,307.692 340.627 C 307.853 340.787,315.034 340.963,323.651 341.018 L 339.317 341.119 340.259 340.178 C 341.192 339.244,341.200 339.161,341.197 330.118 C 341.165 224.106,341.301 205.818,342.129 204.900 C 343.303 203.596,357.651 203.496,359.283 204.780 L 360.275 205.560 360.554 215.480 C 360.832 225.334,360.840 225.407,361.825 226.400 L 362.818 227.400 381.409 227.512 L 400.000 227.623 400.000 113.812 L 400.000 0.000 312.181 0.000 L 224.363 0.000 224.544 7.043 M0.000 487.988 L 0.000 729.200 200.000 729.200 L 400.000 729.200 400.000 504.058 L 400.000 278.916 397.300 278.715 C 392.000 278.321,381.700 278.926,380.952 279.675 C 380.130 280.499,380.151 278.573,380.339 335.752 L 380.478 378.104 379.430 379.152 L 378.382 380.200 343.161 380.263 C 323.790 380.298,307.819 380.447,307.670 380.596 C 307.522 380.744,307.310 384.106,307.200 388.067 L 307.000 395.270 305.878 396.235 L 304.755 397.200 282.604 397.200 C 258.558 397.200,258.793 397.222,257.706 394.914 L 256.994 393.400 252.797 393.400 L 248.600 393.400 248.358 456.600 C 248.225 491.360,248.090 544.519,248.058 574.731 L 248.000 629.662 246.831 630.831 L 245.662 632.000 239.475 632.000 C 230.617 632.000,231.638 629.136,231.447 654.530 C 231.319 671.602,231.394 676.057,231.839 677.730 C 232.492 680.180,232.638 698.923,232.017 700.555 C 231.163 702.801,230.847 702.834,211.162 702.712 L 193.130 702.600 192.165 701.478 L 191.200 700.355 191.200 690.041 C 191.200 682.641,191.350 679.229,191.729 677.964 C 192.285 676.113,192.343 640.650,191.799 635.352 C 191.471 632.157,191.116 632.000,184.200 632.000 C 174.741 632.000,175.600 635.029,175.600 601.682 C 175.600 575.880,175.563 574.491,174.869 573.862 C 173.759 572.857,151.181 572.858,150.349 573.862 C 149.893 574.412,149.825 578.647,149.947 598.762 C 150.165 634.788,150.890 631.993,141.318 632.013 C 136.457 632.023,134.825 632.158,134.240 632.601 C 133.290 633.319,132.663 674.562,133.561 677.280 C 134.132 679.013,134.499 699.288,133.983 700.645 C 133.168 702.790,132.728 702.833,113.162 702.712 L 95.130 702.600 94.165 701.478 L 93.200 700.355 93.200 690.050 C 93.200 682.316,93.342 679.253,93.770 677.773 C 94.772 674.309,94.068 633.438,92.993 632.625 C 92.370 632.154,90.883 632.023,86.069 632.013 L 79.938 632.000 78.769 630.831 L 77.600 629.662 77.542 572.931 C 77.510 541.729,77.375 495.680,77.242 470.600 L 77.000 425.000 74.133 425.000 C 72.556 425.000,71.116 425.150,70.933 425.333 C 70.750 425.516,70.541 451.193,70.468 482.392 C 70.342 536.436,70.302 539.154,69.614 539.893 C 68.727 540.845,55.532 541.181,27.232 540.973 L 9.864 540.846 8.931 539.912 L 7.997 538.978 7.983 525.605 C 7.970 513.094,8.018 512.167,8.726 511.216 L 9.484 510.200 19.242 509.987 C 29.731 509.758,30.561 509.597,31.095 507.688 C 31.743 505.373,31.458 425.607,30.800 425.191 C 30.470 424.983,28.850 424.796,27.200 424.777 C 22.384 424.720,19.973 424.255,19.135 423.219 C 17.556 421.269,18.103 357.285,19.710 355.924 C 19.760 355.882,22.950 355.747,26.800 355.624 L 33.800 355.400 34.000 346.665 L 34.200 337.929 35.322 336.965 L 36.445 336.000 50.449 336.000 C 67.272 336.000,66.000 336.387,66.000 331.275 C 66.000 323.765,63.694 324.269,98.800 324.108 C 114.530 324.036,127.805 323.888,128.300 323.781 C 129.160 323.593,129.200 323.408,129.200 319.582 C 129.200 314.567,129.692 314.805,119.274 314.786 C 110.547 314.770,109.901 314.619,108.831 312.351 L 108.193 311.000 93.707 310.800 C 75.484 310.548,77.470 311.837,77.200 300.090 L 77.000 291.400 70.400 291.194 C 61.067 290.903,61.600 291.553,61.600 280.461 C 61.600 270.675,62.525 271.600,52.739 271.600 C 41.303 271.600,42.084 272.558,41.919 258.320 C 41.829 250.525,41.674 247.914,41.278 247.520 C 40.760 247.004,25.784 246.882,25.277 247.389 C 25.163 247.503,24.946 249.158,24.795 251.066 C 24.440 255.538,23.971 256.000,19.788 256.000 C 15.279 256.000,14.424 255.198,14.372 250.920 C 14.323 246.871,14.729 247.087,6.871 246.921 L 0.000 246.775 0.000 487.988 M157.800 251.116 C 156.773 251.701,154.987 251.829,145.400 252.000 C 139.240 252.110,133.975 252.346,133.700 252.524 C 132.909 253.036,133.073 256.554,133.938 257.623 L 134.676 258.534 160.238 258.630 C 174.297 258.683,186.786 258.737,187.991 258.750 C 190.449 258.776,191.891 258.067,192.168 256.695 C 193.132 251.914,194.171 252.258,177.981 252.008 C 166.095 251.824,164.441 251.720,163.495 251.100 C 162.141 250.212,159.373 250.219,157.800 251.116 " stroke="none" fill="#f5f4f4" fill-rule="evenodd"></path><path id="path4" d="M212.843 201.326 C 212.780 202.967,212.135 203.938,210.683 204.573 L 209.400 205.135 210.633 205.167 C 212.275 205.211,212.426 205.437,211.810 206.933 C 211.263 208.259,211.067 214.005,211.023 230.000 C 210.997 239.536,211.056 239.785,213.988 242.590 L 215.232 243.781 219.516 243.590 C 224.301 243.378,230.957 243.369,249.889 243.548 C 267.800 243.719,266.886 244.533,267.091 228.228 C 267.297 211.964,267.115 213.264,269.200 213.164 C 270.006 213.125,269.894 213.021,268.621 212.628 C 266.094 211.847,265.566 210.780,265.524 206.382 C 265.499 203.763,265.382 202.895,265.142 203.546 C 264.879 204.255,264.625 204.405,264.097 204.160 C 263.714 203.981,262.320 203.863,261.000 203.896 C 259.680 203.930,254.902 203.781,250.383 203.567 C 244.812 203.303,240.384 203.313,236.633 203.598 C 231.082 204.019,220.702 203.590,217.000 202.787 C 215.809 202.529,215.175 202.587,214.522 203.014 C 213.679 203.567,213.630 203.524,213.265 201.895 C 212.960 200.530,212.877 200.419,212.843 201.326 M104.400 202.800 C 104.400 203.467,104.178 204.022,103.900 204.049 C 103.037 204.133,100.368 203.989,95.400 203.589 C 92.742 203.375,84.709 203.307,77.400 203.435 C 66.359 203.629,63.889 203.570,62.297 203.072 C 60.309 202.450,59.188 202.553,57.732 203.491 C 56.944 203.998,56.188 204.192,53.804 204.498 C 53.179 204.578,52.953 204.299,52.756 203.200 C 52.564 202.129,52.487 202.459,52.429 204.600 C 52.252 211.056,51.743 212.090,48.482 212.621 L 46.600 212.926 48.282 213.283 C 49.842 213.614,49.939 213.710,49.605 214.587 C 49.388 215.158,49.403 217.085,49.644 219.434 C 49.863 221.578,49.960 226.977,49.859 231.432 C 49.626 241.738,49.730 241.931,55.800 242.465 C 73.485 244.022,88.558 244.295,95.400 243.181 C 98.040 242.752,101.067 242.400,102.126 242.400 C 106.741 242.400,107.478 241.144,107.103 233.919 C 106.940 230.774,106.902 227.621,107.019 226.913 C 107.136 226.205,106.942 223.532,106.588 220.972 C 105.790 215.203,105.807 211.969,106.655 208.537 C 106.772 208.063,106.658 207.282,106.402 206.803 C 105.724 205.537,106.025 205.424,110.733 205.168 L 115.000 204.936 111.319 204.868 C 107.074 204.790,105.798 204.344,105.241 202.745 C 104.726 201.267,104.400 201.288,104.400 202.800 M147.000 260.400 C 146.449 260.637,146.387 260.759,146.800 260.792 C 147.130 260.819,146.725 261.121,145.900 261.463 C 145.075 261.806,144.373 262.291,144.339 262.543 C 144.306 262.794,144.236 263.180,144.185 263.400 C 144.134 263.620,144.072 264.025,144.046 264.300 C 143.950 265.340,142.800 264.798,142.772 263.700 C 142.719 261.640,142.214 260.853,141.636 261.932 C 141.006 263.110,141.400 264.873,142.532 265.936 C 143.412 266.763,153.189 267.348,154.332 266.642 C 154.539 266.514,154.955 266.706,155.255 267.069 C 155.742 267.660,155.821 267.591,156.000 266.423 C 156.237 264.874,158.687 263.784,161.163 264.125 C 162.094 264.254,163.350 264.025,164.731 263.475 L 166.862 262.627 168.331 263.428 C 169.344 263.980,169.775 264.477,169.720 265.028 C 169.652 265.712,169.903 265.839,171.450 265.907 C 172.445 265.950,173.937 266.168,174.765 266.391 C 180.205 267.856,185.303 265.728,184.157 262.471 C 183.659 261.055,183.000 261.508,183.000 263.267 C 183.000 265.182,182.819 265.312,180.609 264.980 L 178.745 264.701 179.781 263.620 L 180.817 262.539 179.982 261.784 C 179.196 261.073,179.190 261.014,179.874 260.769 C 181.091 260.334,174.350 259.975,172.000 260.349 C 170.107 260.651,169.996 260.714,171.200 260.796 C 172.019 260.853,172.268 260.961,171.800 261.057 C 171.360 261.147,170.060 261.522,168.911 261.889 C 166.588 262.633,162.563 261.595,164.600 260.777 C 165.135 260.563,164.604 260.456,163.000 260.456 C 161.375 260.456,160.858 260.562,161.400 260.782 C 162.142 261.085,162.124 261.128,161.141 261.387 C 159.770 261.748,158.177 261.503,158.281 260.947 C 158.433 260.136,148.711 259.665,147.000 260.400 M150.100 261.082 C 149.605 261.178,148.795 261.178,148.300 261.082 C 147.805 260.987,148.210 260.909,149.200 260.909 C 150.190 260.909,150.595 260.987,150.100 261.082 M206.200 631.620 C 206.640 631.798,208.080 631.942,209.400 631.940 C 212.416 631.936,211.858 631.722,208.200 631.481 C 206.573 631.374,205.735 631.432,206.200 631.620 M214.300 631.493 C 215.235 631.577,216.765 631.577,217.700 631.493 C 218.635 631.409,217.870 631.340,216.000 631.340 C 214.130 631.340,213.365 631.409,214.300 631.493 M119.700 631.887 C 120.305 631.978,121.295 631.978,121.900 631.887 C 122.505 631.795,122.010 631.720,120.800 631.720 C 119.590 631.720,119.095 631.795,119.700 631.887 " stroke="none" fill="#ed857f" fill-rule="evenodd"></path></g></svg>