<svg width="36" height="36" viewBox="0 0 36 36" fill="none" xmlns="http://www.w3.org/2000/svg">
<g clip-path="url(#clip0_55_545)">
<path d="M17.9998 14.7272V21.6982H27.687C27.2616 23.94 25.9851 25.8382 24.0706 27.1146L29.9124 31.6473C33.316 28.5056 35.2797 23.891 35.2797 18.4092C35.2797 17.1329 35.1651 15.9055 34.9524 14.7274L17.9998 14.7272Z" fill="white"/>
<path d="M7.91204 21.426L6.5945 22.4346L1.93079 26.0673C4.8926 31.9417 10.9631 36 17.9994 36C22.8592 36 26.9337 34.3963 29.912 31.6473L24.0702 27.1146C22.4666 28.1946 20.4211 28.8492 17.9994 28.8492C13.3194 28.8492 9.34314 25.691 7.9194 21.4364L7.91204 21.426Z" fill="white"/>
<path d="M1.93077 9.93274C0.703563 12.3545 0 15.0872 0 17.9999C0 20.9126 0.703563 23.6454 1.93077 26.0671C1.93077 26.0833 7.91996 21.4198 7.91996 21.4198C7.55996 20.3398 7.34718 19.1944 7.34718 17.9997C7.34718 16.805 7.55996 15.6596 7.91996 14.5796L1.93077 9.93274Z" fill="white"/>
<path d="M17.9997 7.16727C20.6507 7.16727 23.007 8.08361 24.8888 9.8509L30.0433 4.69642C26.9178 1.78375 22.8598 0 17.9997 0C10.9634 0 4.8926 4.04181 1.93079 9.93274L7.9198 14.58C9.34335 10.3254 13.3198 7.16727 17.9997 7.16727Z" fill="white"/>
</g>
<defs>
<clipPath id="clip0_55_545">
<rect width="36" height="36" fill="white"/>
</clipPath>
</defs>
</svg>
